# AST/ASF file generated using VICON BodyLanguage
# -----------------------------------------------
:version 1.10
:name VICON
:units
  mass 1.0
  length 0.45
  angle deg
:documentation
   .ast/.asf automatically generated from VICON data using
   VICON BodyBuilder and BodyLanguage model FoxedUp or BRILLIANT.MOD
:root
   order TX TY TZ RX RY RZ
   axis XYZ
   position 0 0 0  
   orientation 0 0 0 
:bonedata
  begin
     id 1 
     name lhipjoint
     direction 0.535335 -0.74333 0.401095 
     length 2.04549 
     axis 0 0 0  XYZ
  end
  begin
     id 2 
     name lfemur
     direction 0.34202 -0.939693 0  
     length 6.95643  
     axis 0 0 20  XYZ
    dof rx ry rz
    limits (-160.0 20.0)
           (-70.0 70.0)
           (-60.0 70.0)
  end
  begin
     id 3 
     name ltibia
     direction 0.34192 -0.939729 0   
     length 5.55969   
     axis 0 0 20   XYZ
    dof rx
    limits (-10.0 170.0)
  end
  begin
     id 4 
     name lfoot
     direction 0.216943 -0.596046 0.773088   
     length 2.27918   
     axis -90 7.62852e-016 20   XYZ
    dof rx rz
    limits (-45.0 90.0)
           (-70.0 20.0)
  end
  begin
     id 5 
     name ltoes
     direction 1.53519e-011 -4.21748e-011 1   
     length 1.05562   
     axis -90 7.62852e-016 20   XYZ
    dof rx
    limits (-90.0 20.0)
  end
  begin
     id 6 
     name rhipjoint
     direction -0.576368 -0.719173 0.38806   
     length 2.1142  
     axis 0 0 0  XYZ 
  end
  begin
     id 7 
     name rfemur
     direction -0.34202 -0.939693 0   
     length 7.07928   
     axis 0 0 -20   XYZ
    dof rx ry rz
    limits (-160.0 20.0)
           (-70.0 70.0)
           (-70.0 60.0)
  end
  begin
     id 8 
     name rtibia
     direction -0.34202 -0.939693 0   
     length 5.79974   
     axis 0 0 -20   XYZ
    dof rx
    limits (-10.0 170.0)
 end
 begin
     id 9 
     name rfoot
     direction -0.189288 -0.520065 0.832888   
     length 2.42173  
     axis -90 -7.62852e-016 -20   XYZ
    dof rx rz
    limits (-45.0 90.0)
           (-20.0 70.0)
  end
  begin
     id 10 
     name rtoes
     direction -1.53574e-011 -4.21658e-011 1   
     length 1.14469   
     axis -90 -7.62852e-016 -20   XYZ
    dof rx
    limits (-90.0 20.0)
  end
  begin
     id 11 
     name lowerback
     direction -0.00135702 0.993803 0.111144   
     length 1.91308   
     axis 0 0 0   XYZ
    dof rx ry rz
    limits (-20.0 45.0)
           (-30.0 30.0)
           (-30.0 30.0)
  end
  begin
     id 12 
     name upperback
     direction -0.0056745 0.999813 0.0184631   
     length 1.9212   
     axis 0 0 0   XYZ
    dof rx ry rz
    limits (-20.0 45.0)
           (-30.0 30.0)
           (-30.0 30.0)
  end
  begin
     id 13 
     name thorax
     direction -0.00733434 0.999426 -0.0330788   
     length 1.94196   
     axis 0 0 0   XYZ
    dof rx ry rz
    limits (-20.0 45.0)
           (-30.0 30.0)
           (-30.0 30.0)
  end
  begin
     id 14 
     name lowerneck
     direction 0.0563074 0.996944 -0.0541571   
     length 2.34257   
     axis 0 0 0   XYZ
    dof rx ry rz
    limits (-20.0 45.0)
           (-30.0 30.0)
           (-30.0 30.0)
  end
  begin
     id 15 
     name upperneck
     direction -0.0544519 0.976166 -0.210085   
     length 2.32506   
     axis 0 0 0   XYZ
    dof rx ry rz
    limits (-20.0 45.0)
           (-30.0 30.0)
           (-30.0 30.0)
  end
  begin
     id 16
     name head
     direction -0.0226035 0.997615 -0.0652205  
     length 2.3648  
     axis 0 0 0   XYZ
    dof rx ry rz
    limits (-20.0 45.0)
           (-30.0 30.0)
           (-30.0 30.0)
  end
  begin
     id 17 
     name lclavicle
     direction 0.92109 0.381297 -0.0787716  
     length 4.0487  
     axis 0 0 0   XYZ
    dof ry rz
    limits (-20.0 10.0)
           (0.0 20.0)
  end
  begin
     id 18 
     name lhumerus
     direction 1 -4.48986e-011 3.56724e-027   
     length 4.94991   
     axis 180 -30 -90   XYZ
    dof rx ry rz
    limits (-60.0 90.0)
           (-90.0 90.0)
           (-90.0 90.0)
  end
  begin
     id 19
     name lradius
     direction 1 -4.48981e-011 8.62147e-027   
     length 2.7606   
     axis 180 -30 -90   XYZ
    dof rx
    limits (-10.0 170.0)
  end
  begin
     id 20
     name lwrist
     direction 1 -4.48989e-011 1.59799e-026   
     length 1.3803   
     axis -1.17785e-014 90 90   XYZ
    dof ry
    limits (-180.0 0.0)
 end
  begin
     id 21 
     name lhand
     direction 1 -4.48896e-011 3.19599e-026   
     length 0.843936   
     axis -2.03931e-014 90 90   XYZ
    dof rx rz
    limits (-90.0 90.0)
           (-45.0 45.0)
  end
  begin
     id 22 
     name lfingers
     direction 1 -4.48887e-011 6.39197e-026   
     length 0.680403   
     axis -4.07862e-014 90 90   XYZ
    dof rx
    limits (0.0 90.0)
  end
  begin
     id 23
     name lthumb
     direction 0.707107 -6.348e-011 0.707107   
     length 0.976926   
     axis -90 45 2.85299e-015   XYZ
    dof rx rz
    limits (-45.0 45.0)
           (-45.0 45.0)
  end
  begin
     id 24 
     name rclavicle
     direction -0.951104 0.307692 -0.026953   
     length 4.21801  
     axis 0 0 0   XYZ 
    dof ry rz
    limits (-10.0 20.0)
           (-20.0 0.0)
  end
  begin
     id 25 
     name rhumerus
     direction -1 -4.4896e-011 -1.8171e-018  
     length 4.32982   
     axis 180 30 90   XYZ
    dof rx ry rz
    limits (-90.0 60.0)
           (-90.0 90.0)
           (-90.0 90.0)
  end
  begin
     id 26 
     name rradius
     direction -1 -4.48959e-011 8.25165e-027   
     length 3.20057   
     axis 180 30 90   XYZ
    dof rx
    limits (-10.0 170.0)
  end
  begin
     id 27 
     name rwrist
     direction -1 -4.48997e-011 1.59799e-026   
     length 1.60029   
     axis -1.17785e-014 -90 -90   XYZ
    dof ry
    limits (-180.0 0.0)
  end
  begin
     id 28
     name rhand
     direction -1 -4.49023e-011 3.19599e-026   
     length 0.960433   
     axis -2.03931e-014 -90 -90   XYZ
    dof rx rz
    limits (-90.0 90.0)
           (-45.0 45.0)
  end
  begin
     id 29
     name rfingers
     direction -1 -4.48802e-011 6.39197e-026   
     length 0.774326   
     axis -4.07862e-014 -90 -90   XYZ
    dof rx
    limits (0.0 90.0)
  end
  begin
     id 30
     name rthumb
     direction -0.707107 -6.34876e-011 0.707107   
     length 1.11178   
     axis -90 -45 -2.85299e-015   XYZ
    dof rx rz
    limits (-45.0 45.0)
           (-45.0 45.0)
  end
:hierarchy
  begin
    root lhipjoint rhipjoint lowerback
    lhipjoint lfemur
    lfemur ltibia
    ltibia lfoot
    lfoot ltoes
    rhipjoint rfemur
    rfemur rtibia
    rtibia rfoot
    rfoot rtoes
    lowerback upperback
    upperback thorax
    thorax lowerneck lclavicle rclavicle
    lowerneck upperneck
    upperneck head
    lclavicle lhumerus
    lhumerus lradius
    lradius lwrist
    lwrist lhand lthumb
    lhand lfingers
    rclavicle rhumerus
    rhumerus rradius
    rradius rwrist
    rwrist rhand rthumb
    rhand rfingers
end

#!OML:ASF C:\KaitlinTest1\Natural Motions\Nikki\Session 2\Nikki.ASF
:FULLY-SPECIFIED
:DEGREES
804
root 0.545057 16.526 5.10321 -155.639 78.73 -163.494
lowerback -7.99216 2.22367 -0.194448
upperback -3.02187 3.13241 -2.50473
thorax 1.48193 1.60346 -2.18413
lowerneck -5.49141 -18.2344 -9.52722
upperneck 7.14869 39.1167 4.32259
head 113.273 74.0253 -89.4736
rclavicle -4.55962e-015 4.77083e-015
rhumerus 2.19156 -11.8591 -97.6326
rradius 2.44181
rwrist 34.6671
rhand -24.6182 -11.7563
rfingers 7.12502
rthumb 1.8803 -41.7278
lclavicle -4.55962e-015 4.77083e-015
lhumerus -46.6003 20.2332 66.5845
lradius 22.0997
lwrist -30.1217
lhand -36.5938 4.26859
lfingers 7.12502
lthumb -9.68277 34.026
rfemur -14.9021 -15.4962 23.408
rtibia 25.8576
rfoot -15.0988 5.26988
rtoes -8.74653e-015
lfemur -20.6429 16.2737 -18.3077
ltibia 29.1135
lfoot -9.00871 -25.9767
ltoes 2.8625e-014
805
root 0.543711 16.5251 5.10413 -155.428 78.808 -163.235
lowerback -7.99165 2.21691 -0.18303
upperback -3.00973 3.12236 -2.50859
thorax 1.49461 1.59824 -2.19518
lowerneck -5.44167 -18.2079 -9.48316
upperneck 7.13495 38.9999 4.31273
head 112.564 74.1033 -90.1376
rclavicle 1.65488e-014 2.38542e-014
rhumerus 2.27483 -11.7233 -97.6491
rradius 2.47883
rwrist 34.615
rhand -24.5305 -11.737
rfingers 7.12502
rthumb 1.965 -41.7077
lclavicle 1.65488e-014 2.38542e-014
lhumerus -46.4942 20.1487 66.6594
lradius 22.1318
lwrist -29.9856
lhand -36.6716 4.32727
lfingers 7.12502
lthumb -9.7578 34.0812
rfemur -14.8638 -15.6063 23.4471
rtibia 25.8399
rfoot -15.1356 5.42678
rtoes 4.13472e-014
lfemur -20.5885 16.3188 -18.26
ltibia 29.1318
lfoot -9.05468 -25.9182
ltoes 4.13472e-014
806
root 0.540238 16.526 5.10426 -155.339 78.8619 -163.141
lowerback -8.00229 2.20021 -0.190717
upperback -3.02936 3.10103 -2.50318
thorax 1.4787 1.5878 -2.18736
lowerneck -5.38063 -18.157 -9.49871
upperneck 7.16606 39.0627 4.33748
head 112.757 74.1192 -89.9648
rclavicle 1.40889e-014 -4.77083e-015
rhumerus 2.32688 -11.582 -97.634
rradius 2.50098
rwrist 34.609
rhand -24.5178 -11.6985
rfingers 7.12502
rthumb 1.97729 -41.6691
lclavicle 1.40889e-014 -4.77083e-015
lhumerus -46.4055 20.265 66.6488
lradius 22.1188
lwrist -30.0269
lhand -36.691 4.26306
lfingers 7.12502
lthumb -9.77651 34.0161
rfemur -14.8645 -15.5839 23.4427
rtibia 25.8059
rfoot -15.1328 5.49658
rtoes -1.66979e-014
lfemur -20.6033 16.3054 -18.2564
ltibia 29.1536
lfoot -9.05877 -25.8445
ltoes -1.90833e-014
807
root 0.538619 16.5235 5.10424 -154.933 78.9695 -162.718
lowerback -8.03276 2.21694 -0.139724
upperback -3.04032 3.11966 -2.49855
thorax 1.48732 1.59696 -2.20844
lowerneck -5.34143 -18.1377 -9.47542
upperneck 7.17948 39.0556 4.34091
head 112.486 74.1316 -90.2106
rclavicle -5.1361e-014 1.11319e-014
rhumerus 2.43092 -11.4567 -97.6377
rradius 2.44668
rwrist 34.5454
rhand -24.67 -11.5649
rfingers 7.12502
rthumb 1.83032 -41.5368
lclavicle -5.1361e-014 1.11319e-014
lhumerus -46.3563 20.1573 66.7084
lradius 22.1717
lwrist -29.9791
lhand -36.6074 4.41623
lfingers 7.12502
lthumb -9.69585 34.1731
rfemur -14.8494 -15.6246 23.4924
rtibia 25.7725
rfoot -15.1253 5.62941
rtoes -4.37326e-014
lfemur -20.5751 16.301 -18.1954
ltibia 29.1773
lfoot -9.1039 -25.7035
ltoes 2.54444e-014
808
root 0.544957 16.5214 5.11033 -154.32 79.021 -161.972
lowerback -8.07035 2.21618 -0.134311
upperback -2.98513 3.1156 -2.43783
thorax 1.56185 1.59417 -2.14624
lowerneck -5.32374 -18.1172 -9.45389
upperneck 7.19813 39.0928 4.34797
head 112.432 74.1136 -90.2468
rclavicle -4.13721e-014 7.95139e-015
rhumerus 2.52517 -11.3139 -97.6524
rradius 2.43937
rwrist 34.46
rhand -24.7086 -11.4716
rfingers 7.12502
rthumb 1.79302 -41.4438
lclavicle -4.13721e-014 7.95139e-015
lhumerus -46.2807 20.2801 66.6285
lradius 22.1137
lwrist -30.3234
lhand -36.5144 4.44678
lfingers 7.12502
lthumb -9.60615 34.2078
rfemur -14.6963 -15.0575 23.6178
rtibia 25.7457
rfoot -15.0352 5.19237
rtoes 3.02153e-014
lfemur -20.4378 16.3321 -17.9516
ltibia 29.182
lfoot -9.0702 -25.6604
ltoes 9.38264e-014
809
root 0.540918 16.521 5.11145 -154.21 79.1028 -161.855
lowerback -8.07605 2.22049 -0.147894
upperback -2.99353 3.12248 -2.4365
thorax 1.55581 1.5977 -2.13659
lowerneck -5.28255 -18.0846 -9.47241
upperneck 7.21122 39.1152 4.35717
head 112.629 74.1201 -90.0531
rclavicle 6.54002e-014 -1.59028e-014
rhumerus 2.57481 -11.1993 -97.6542
rradius 2.50324
rwrist 34.3601
rhand -24.7437 -11.3975
rfingers 7.12502
rthumb 1.75911 -41.3699
lclavicle 6.54002e-014 -1.59028e-014
lhumerus -46.2116 20.3151 66.6587
lradius 22.1426
lwrist -30.2905
lhand -36.5333 4.36804
lfingers 7.12502
lthumb -9.62437 34.1282
rfemur -14.7155 -15.0249 23.6115
rtibia 25.7459
rfoot -15.0054 5.25
rtoes -2.06736e-014
lfemur -20.4233 16.3059 -17.952
ltibia 29.1705
lfoot -9.08191 -25.5387
ltoes 4.6118e-014
810
root 0.537156 16.5222 5.11121 -154.156 79.1771 -161.791
lowerback -8.07098 2.22519 -0.140354
upperback -3.01068 3.12906 -2.4596
thorax 1.53721 1.60116 -2.16466
lowerneck -5.2153 -18.0812 -9.44285
upperneck 7.21502 39.0372 4.35095
head 112.237 74.1411 -90.3919
rclavicle -3.19049e-014 2.8625e-014
rhumerus 2.60576 -11.109 -97.6704
rradius 2.56038
rwrist 34.4803
rhand -24.8026 -11.3334
rfingers 7.12502
rthumb 1.70222 -41.3064
lclavicle -3.19049e-014 2.8625e-014
lhumerus -46.1022 20.0811 66.8387
lradius 22.1951
lwrist -29.9397
lhand -36.5767 4.36222
lfingers 7.12502
lthumb -9.66625 34.1204
rfemur -14.7401 -15.052 23.6031
rtibia 25.7516
rfoot -15.0067 5.3438
rtoes -3.81667e-014
lfemur -20.4072 16.3052 -17.967
ltibia 29.1498
lfoot -9.06049 -25.4629
ltoes -1.11319e-013
811
root 0.523841 16.5268 5.10658 -154.541 79.2715 -162.329
lowerback -8.10697 2.22642 -0.166449
upperback -3.08056 3.13691 -2.51732
thorax 1.48706 1.60629 -2.20919
lowerneck -5.17702 -18.0914 -9.44365
upperneck 7.20328 38.9511 4.31565
head 111.863 74.1303 -90.6858
rclavicle -5.7896e-015 -1.43125e-014
rhumerus 2.69115 -11.0166 -97.6256
rradius 2.53389
rwrist 34.3281
rhand -24.8003 -11.28
rfingers 7.12502
rthumb 1.70448 -41.2529
lclavicle -5.7896e-015 -1.43125e-014
lhumerus -45.9994 19.8979 67.0409
lradius 22.2517
lwrist -29.635
lhand -36.6359 4.4672
lfingers 7.12502
lthumb -9.72333 34.2228
rfemur -14.9838 -15.6022 23.4722
rtibia 25.7824
rfoot -15.0418 5.96952
rtoes 4.05521e-014
lfemur -20.561 16.2217 -18.2141
ltibia 29.1237
lfoot -9.04532 -25.3194
ltoes -9.54166e-015
812
root 0.5208 16.5265 5.10733 -154.445 79.3028 -162.183
lowerback -8.08953 2.22614 -0.147961
upperback -3.07919 3.13463 -2.5187
thorax 1.4798 1.60494 -2.22187
lowerneck -5.11546 -18.0533 -9.46693
upperneck 7.23473 39.0153 4.34487
head 112.219 74.14 -90.3608
rclavicle -1.61513e-015 -3.18055e-015
rhumerus 2.74871 -10.9311 -97.6141
rradius 2.55264
rwrist 34.1726
rhand -24.9102 -11.2417
rfingers 7.12502
rthumb 1.59827 -41.2154
lclavicle -1.61513e-015 -3.18055e-015
lhumerus -45.9549 19.8018 67.1072
lradius 22.3372
lwrist -29.6258
lhand -36.646 4.43286
lfingers 7.12502
lthumb -9.73313 34.188
rfemur -14.9567 -15.6382 23.4851
rtibia 25.8073
rfoot -15.0538 6.02147
rtoes -3.81667e-014
lfemur -20.5096 16.196 -18.1769
ltibia 29.1032
lfoot -9.01261 -25.2566
ltoes -1.27222e-014
813
root 0.517846 16.5257 5.1078 -154.459 79.3904 -162.141
lowerback -8.06566 2.24744 -0.16471
upperback -3.07354 3.16369 -2.52339
thorax 1.47296 1.61934 -2.21541
lowerneck -5.06488 -18.0682 -9.46579
upperneck 7.2134 38.8792 4.3015
head 111.601 74.1564 -90.8891
rclavicle 8.52289e-015 5.40694e-014
rhumerus 2.79979 -10.8584 -97.5672
rradius 2.55963
rwrist 34.2061
rhand -24.8439 -11.1888
rfingers 7.12502
rthumb 1.66237 -41.1621
lclavicle 8.52289e-015 5.40694e-014
lhumerus -45.8889 19.7814 67.1569
lradius 22.3804
lwrist -29.5951
lhand -36.5698 4.35554
lfingers 7.12502
lthumb -9.65958 34.1141
rfemur -14.919 -15.6482 23.4483
rtibia 25.8259
rfoot -15.0902 6.11055
rtoes -2.14687e-014
lfemur -20.429 16.2212 -18.1804
ltibia 29.0922
lfoot -9.00849 -25.1803
ltoes 3.81667e-014
814
root 0.515404 16.5256 5.10812 -154.343 79.4981 -162.004
lowerback -8.06934 2.26022 -0.18083
upperback -3.08171 3.18178 -2.51852
thorax 1.46613 1.62844 -2.19969
lowerneck -5.07798 -18.0462 -9.47941
upperneck 7.26393 39.0779 4.3365
head 112.332 74.0689 -90.1979
rclavicle -2.64384e-014 3.02153e-014
rhumerus 2.86341 -10.7397 -97.5389
rradius 2.51987
rwrist 33.9743
rhand -24.9774 -11.165
rfingers 7.12502
rthumb 1.5334 -41.1392
lclavicle -2.64384e-014 3.02153e-014
lhumerus -45.8478 19.5667 67.3428
lradius 22.4812
lwrist -29.339
lhand -36.5742 4.34123
lfingers 7.12502
lthumb -9.66383 34.0996
rfemur -14.9127 -15.5957 23.431
rtibia 25.81
rfoot -15.0716 6.16547
rtoes 2.3059e-014
lfemur -20.4033 16.2228 -18.1777
ltibia 29.1106
lfoot -9.04662 -25.0538
ltoes 7.63333e-014
815
root 0.512805 16.525 5.10961 -154.139 79.5052 -161.764
lowerback -8.06846 2.26799 -0.14163
upperback -3.07445 3.18843 -2.50906
thorax 1.47493 1.63142 -2.21109
lowerneck -5.05278 -17.9853 -9.53768
upperneck 7.31053 39.262 4.39925
head 113.335 74.0721 -89.3152
rclavicle 1.49089e-015 2.54444e-014
rhumerus 2.89358 -10.6763 -97.5121
rradius 2.53762
rwrist 33.8744
rhand -25.0613 -11.0727
rfingers 7.12502
rthumb 1.45237 -41.0475
lclavicle 1.49089e-015 2.54444e-014
lhumerus -45.7827 19.4455 67.4504
lradius 22.5487
lwrist -29.2873
lhand -36.5966 4.51772
lfingers 7.12502
lthumb -9.68546 34.275
rfemur -14.8943 -15.6231 23.4701
rtibia 25.7982
rfoot -15.0379 6.21263
rtoes 1.19271e-014
lfemur -20.381 16.2288 -18.1237
ltibia 29.1239
lfoot -9.05471 -25.0576
ltoes 2.06736e-014
816
root 0.517807 16.5206 5.11498 -153.791 79.476 -161.258
lowerback -8.05841 2.25727 -0.140571
upperback -3.01112 3.17071 -2.45378
thorax 1.53106 1.62165 -2.15509
lowerneck -5.03388 -17.9878 -9.536
upperneck 7.29927 39.2021 4.37338
head 113.057 74.0692 -89.5385
rclavicle 2.75814e-014 -4.77083e-015
rhumerus 2.96104 -10.5823 -97.5005
rradius 2.5241
rwrist 33.722
rhand -25.0676 -11.0916
rfingers 7.12502
rthumb 1.44632 -41.0665
lclavicle 2.75814e-014 -4.77083e-015
lhumerus -45.6935 19.274 67.6175
lradius 22.5884
lwrist -29.0644
lhand -36.6061 4.41743
lfingers 7.12502
lthumb -9.69466 34.1743
rfemur -14.6941 -15.0727 23.5712
rtibia 25.7997
rfoot -14.9709 5.66306
rtoes 6.12257e-014
lfemur -20.2247 16.2539 -17.9054
ltibia 29.1235
lfoot -9.03908 -25.1027
ltoes -2.38542e-014
